<svg xmlns="http://www.w3.org/2000/svg" version="1.1" xmlns:xlink="http://www.w3.org/1999/xlink" xmlns:svgjs="http://svgjs.dev/svgjs" width="1440" height="560" preserveAspectRatio="none" viewBox="0 0 1440 560"><g mask="url(&quot;#SvgjsMask1007&quot;)" fill="none"><path d="M461.57 614.16C617.45 605.3 708.4 334.56 1013.34 321.6 1318.27 308.64 1415.76 96.52 1565.1 92" stroke="rgba(246, 179, 82, 1)" stroke-width="2"></path><path d="M748.96 601.63C872.78 582.1 912.59 299.5 1136.33 283.31 1360.07 267.12 1421.21 150.8 1523.7 148.91" stroke="rgba(246, 179, 82, 1)" stroke-width="2"></path><path d="M798.13 620.38C907.38 546.01 849.44 152.54 1038.97 149.79 1228.49 147.04 1386.17 384.01 1520.64 390.59" stroke="rgba(246, 179, 82, 1)" stroke-width="2"></path><path d="M909.03 590.15C973.69 589.24 953.88 519.49 1155.76 512.49 1357.64 505.49 1511.49 272.81 1649.21 266.09" stroke="rgba(246, 179, 82, 1)" stroke-width="2"></path><path d="M201.06 592.99C369.72 538.22 399.75 62.57 655.81 48.6 911.88 34.63 883.19 118.6 1110.57 118.6 1337.94 118.6 1450.29 48.8 1565.32 48.6" stroke="rgba(246, 179, 82, 1)" stroke-width="2"></path></g><defs><mask id="SvgjsMask1007"><rect width="1440" height="560" fill="#ffffff"></rect></mask></defs></svg>