<svg viewBox="0 0 2000 1400" xmlns="http://www.w3.org/2000/svg"><path fill="#fff" d="M0 0h2000v1400H0z"/><rect x="282" y="184" width="12" height="18" fill="#D4B499" rx="0" transform="matrix(-.15075 .89416 -1.0348 -.49564 571.398 92.357)"/><rect x="1678" y="99" width="9" height="11" fill="#D4B499" rx="0" transform="matrix(-.92874 .4258 -.35687 -.91311 3277.05 -723.06)"/><rect x="1072" y="956" width="7" height="14" fill="#D4B499" rx="0" transform="matrix(-.91958 .37742 -.37352 -.93415 2526.238 1324.614)"/><rect x="1706" y="449" width="10" height="19" fill="#506D84" rx="0" transform="matrix(-.70034 .51512 -.77575 -.8573 3404.999 .072)"/><rect x="150" y="383" width="12" height="30" fill="#D4B499" rx="0" transform="matrix(-.56217 .8086 -.8131 -.60932 639.871 489.66)"/><rect x="332" y="802" width="8" height="14" fill="#f3d5c0" rx="0" transform="matrix(.87624 .77904 -.57406 .63086 713.566 60.373)"/><rect x="191" y="663" width="9" height="13" fill="#889EAF" rx="0" transform="matrix(-.19079 .98178 -.98148 -.19084 878.151 608.741)"/><rect x="208" y="958" width="13" height="30" fill="#f3d5c0" rx="0" transform="matrix(-.88714 .20906 -.60971 -.98354 1302.412 1907.682)"/><rect x="1180" y="491" width="11" height="31" fill="#D4B499" rx="0" transform="matrix(-.99248 -.10648 -.05178 -1.01314 2362.57 1376.33)"/><rect x="414" y="885" width="8" height="22" fill="#D4B499" rx="0" transform="matrix(-.33598 .6825 -1.0787 -.78512 1835.54 1434.047)"/><rect x="239" y="80" width="7" height="8" fill="#f3d5c0" rx="0" transform="matrix(.01335 1.0181 -.9827 -.03555 303.379 -112.765)"/><rect x="12" y="703" width="7" height="11" fill="#f3d5c0" rx="0" transform="matrix(.92385 .63018 -.44598 .77821 520.085 146.556)"/><rect x="1573" y="171" width="7" height="14" fill="#506D84" rx="0" transform="matrix(-.86144 .37742 -.51743 -.93415 3039.638 -57.154)"/><rect x="625" y="433" width="11" height="28" fill="#506D84" rx="0" transform="matrix(-.89703 .3102 -.46298 -.95469 1500.726 623.005)"/><rect x="1800" y="15" width="10" height="26" fill="#506D84" rx="0" transform="matrix(.85125 .62931 -.45939 .83513 199.868 -579.45)"/><rect x="638" y="875" width="13" height="20" fill="#889EAF" rx="0" transform="matrix(-.13864 .9824 -.98336 -.24494 1552.395 570.698)"/><rect x="1807" y="487" width="12" height="20" fill="#889EAF" rx="0" transform="matrix(-1.00382 .08716 0 -.9962 3589.443 834.095)"/><rect x="626" y="1267" width="8" height="16" fill="#D4B499" rx="0" transform="matrix(.97837 .58787 -.35444 .80914 851.98 -138.012)"/><rect x="85" y="509" width="9" height="10" fill="#D4B499" rx="0" transform="matrix(-.90983 .39222 -.40614 -.92402 432.884 946.013)"/><rect x="1230" y="601" width="8" height="8" fill="#f3d5c0" rx="0" transform="matrix(-.18346 .877 -1.02112 -.56952 2181.411 244.627)"/><rect x="191" y="222" width="12" height="12" fill="#889EAF" rx="0" transform="matrix(1.03303 .20842 .06199 .98054 53.124 -50.396)"/><rect x="1175" y="14" width="8" height="9" fill="#D4B499" rx="0" transform="matrix(.98041 -.08824 .1263 1.00861 -11.943 -82.857)"/><rect x="947" y="879" width="12" height="28" fill="#889EAF" rx="0" transform="matrix(.05707 .92244 -1.11192 -.4499 2231.843 635.698)"/><rect x="552" y="1248" width="8" height="8" fill="#889EAF" rx="0" transform="matrix(-.29827 .78512 -1.0144 -.6825 2215.42 1829.389)"/><rect x="811" y="175" width="7" height="13" fill="#506D84" rx="0" transform="matrix(.95332 .45461 -.32868 .89223 117.29 -308.036)"/><rect x="212" y="1113" width="9" height="11" fill="#D4B499" rx="0" transform="matrix(-.34534 .87796 -.94758 -.48666 1430.668 1491.694)"/><rect x="1934" y="1107" width="12" height="32" fill="#889EAF" rx="0" transform="matrix(-.93062 .22499 -.41376 -.97452 4414.046 1814.776)"/><rect x="89" y="643" width="13" height="33" fill="#506D84" rx="0" transform="matrix(.68814 .61801 -.73731 .79102 470.508 70.446)"/><rect x="1002" y="465" width="7" height="14" fill="#f3d5c0" rx="0" transform="matrix(.98701 .19107 -.15592 .98297 123.34 -236.782)"/><rect x="207" y="1081" width="8" height="9" fill="#f3d5c0" rx="0" transform="matrix(-.4147 .78316 -.9289 -.65715 1385.866 1678.437)"/><rect x="1173" y="732" width="12" height="32" fill="#f3d5c0" rx="0" transform="matrix(.90984 .67983 -.38666 .81018 355.223 -253.57)"/><rect x="724" y="918" width="8" height="13" fill="#506D84" rx="0" transform="matrix(-.24278 .99163 -.97432 -.13936 1759.053 293.285)"/><rect x="1435" y="1011" width="7" height="18" fill="#506D84" rx="0" transform="matrix(.60688 .63279 -.83087 .78143 1275.383 -838.512)"/><rect x="1227" y="980" width="11" height="11" fill="#f3d5c0" rx="0" transform="matrix(-.55278 .79393 -.82768 -.62028 2891.627 466.942)"/><rect x="149" y="525" width="8" height="16" fill="#889EAF" rx="0" transform="matrix(1.01351 .31134 -.09268 .9582 224.392 -44.14)"/><rect x="1396" y="1040" width="9" height="22" fill="#D4B499" rx="0" transform="matrix(.0491 .96955 -1.05125 -.39172 2644.474 533.024)"/><rect x="1047" y="1324" width="8" height="15" fill="#889EAF" rx="0" transform="matrix(-1.01645 .15797 .08738 -.9974 1878.525 2345.795)"/><rect x="336" y="968" width="11" height="30" fill="#D4B499" rx="0" transform="matrix(-.14475 .9604 -.9942 -.31205 1654.088 913.777)"/><rect x="1657" y="220" width="7" height="20" fill="#f3d5c0" rx="0" transform="matrix(.21564 .98538 -1.05676 -.19154 1667.418 -1216.89)"/><rect x="428" y="988" width="10" height="14" fill="#D4B499" rx="0" transform="matrix(.80764 .65967 -.58682 .75887 649.02 -.2)"/><rect x="494" y="370" width="13" height="22" fill="#f3d5c0" rx="0" transform="matrix(.85356 .517 -.51365 .86044 231.829 -161.801)"/><rect x="1543" y="434" width="11" height="25" fill="#D4B499" rx="0" transform="matrix(-.201 .87971 -1.01596 -.52859 2412.095 -322.225)"/><rect x="639" y="1136" width="13" height="35" fill="#506D84" rx="0" transform="matrix(-.21526 .81977 -1.05168 -.64047 2257.758 1548.22)"/><rect x="351" y="1205" width="8" height="19" fill="#f3d5c0" rx="0" transform="matrix(.92421 .8874 -.57156 .5332 1023.411 347.014)"/><rect x="1805" y="19" width="8" height="17" fill="#D4B499" rx="0" transform="matrix(-.9827 .08824 -.10017 -1.00861 3545.322 182.124)"/><rect x="1193" y="460" width="13" height="38" fill="#f3d5c0" rx="0" transform="matrix(-.50856 .69561 -.91095 -.72033 2380.969 52.514)"/><rect x="227" y="322" width="10" height="22" fill="#f3d5c0" rx="0" transform="matrix(.71342 .93015 -.74242 .43373 354.342 26.334)"/><rect x="1038" y="72" width="12" height="26" fill="#f3d5c0" rx="0" transform="matrix(.89199 .55719 -.36724 .8917 84.36 -233.284)"/><rect x="1370" y="1039" width="8" height="22" fill="#889EAF" rx="0" transform="matrix(.624 .96216 -.7998 .36934 1429.39 -317.238)"/><rect x="364" y="1332" width="13" height="32" fill="#f3d5c0" rx="0" transform="matrix(-.92807 .51574 -.39438 -.85834 1129.733 2294.547)"/><rect x="1128" y="352" width="9" height="21" fill="#f3d5c0" rx="0" transform="matrix(.43473 .9783 -.92978 .20794 1062.671 -840.568)"/><rect x="1346" y="1275" width="12" height="25" fill="#889EAF" rx="0" transform="matrix(.44173 .95996 -.90666 .29349 2020.405 -269.945)"/><rect x="1012" y="89" width="8" height="11" fill="#889EAF" rx="0" transform="matrix(.70848 .88349 -.75517 .46976 385.593 -882.993)"/><rect x="88" y="201" width="9" height="11" fill="#889EAF" rx="0" transform="matrix(-.70764 .86189 -.73505 -.51788 285.583 223.994)"/><rect x="955" y="1043" width="10" height="15" fill="#889EAF" rx="0" transform="matrix(-.52092 .80648 -.84741 -.60773 2561.664 779.776)"/><rect x="846" y="512" width="8" height="16" fill="#506D84" rx="0" transform="matrix(-.40656 .90686 -.91312 -.42288 1660.806 -1.253)"/><rect x="1406" y="1216" width="10" height="12" fill="#889EAF" rx="0" transform="matrix(-1.00425 .24196 -.10512 -.97044 2759 2091.107)"/><rect x="1333" y="157" width="13" height="20" fill="#506D84" rx="0" transform="matrix(.20792 .96185 -.98004 .2758 1202.186 -1120.678)"/><rect x="1572" y="1162" width="8" height="13" fill="#D4B499" rx="0" transform="matrix(.88935 .75517 -.5511 .65646 1201.758 -843.755)"/><rect x="418" y="254" width="9" height="17" fill="#889EAF" rx="0" transform="matrix(.9886 .55897 -.26672 .86073 106.33 -102.063)"/><rect x="1278" y="1124" width="11" height="19" fill="#f3d5c0" rx="0" transform="matrix(-.76192 .55304 -.63493 -.8516 3241.247 1162.654)"/><rect x="1686" y="980" width="11" height="20" fill="#D4B499" rx="0" transform="matrix(1.0854 .41325 .13718 .97354 53.968 -90.384)"/><rect x="980" y="491" width="10" height="24" fill="#506D84" rx="0" transform="matrix(-.76757 .80169 -.66897 -.60411 2026.364 -68.968)"/><rect x="70" y="524" width="7" height="18" fill="#f3d5c0" rx="0" transform="matrix(.13472 .9576 -1.10146 -.40648 799.141 700.345)"/><rect x="1160" y="621" width="7" height="17" fill="#D4B499" rx="0" transform="matrix(-.32378 .89947 -.9396 -.47826 2101.82 110.188)"/><rect x="1536" y="396" width="13" height="22" fill="#D4B499" rx="0" transform="matrix(.81739 .61905 -.56916 .79235 552.113 -1032.5)"/><rect x="64" y="1104" width="10" height="11" fill="#f3d5c0" rx="0" transform="matrix(-.27943 .90223 -.97208 -.44005 1264.4 1541.514)"/><rect x="57" y="735" width="13" height="19" fill="#D4B499" rx="0" transform="matrix(-.11916 .8874 -1.05528 -.5332 990.999 1102.137)"/><rect x="1629" y="1278" width="8" height="12" fill="#506D84" rx="0" transform="matrix(-.0929 1.02119 -.9612 -.1985 2709.92 339.53)"/><rect x="163" y="56" width="11" height="15" fill="#f3d5c0" rx="0" transform="matrix(-.8978 .60633 -.45783 -.80463 346.608 -8.262)"/><rect x="932" y="44" width="9" height="18" fill="#506D84" rx="0" transform="matrix(1.03952 .32314 .10466 .99451 -.898 -16.01)"/><rect x="138" y="691" width="10" height="21" fill="#889EAF" rx="0" transform="matrix(.5675 .91887 -.8115 .44816 592.756 286.11)"/><rect x="1372" y="1046" width="13" height="37" fill="#D4B499" rx="0" transform="matrix(-.45412 .77026 -.9172 -.64633 3297.515 545.821)"/><rect x="1284" y="231" width="12" height="32" fill="#889EAF" rx="0" transform="matrix(.35431 1.00183 -.9858 .03498 1160.503 -963.798)"/><rect x="1058" y="1324" width="11" height="18" fill="#889EAF" rx="0" transform="matrix(-.55588 .47473 -1.01547 -.93172 3579.247 2395.245)"/><rect x="446" y="361" width="9" height="16" fill="#889EAF" rx="0" transform="matrix(.04539 1.02615 -.97531 -.01791 715.027 17.336)"/><rect x="1468" y="1218" width="8" height="15" fill="#f3d5c0" rx="0" transform="matrix(.1221 1.00076 -.99497 .03495 2557.095 -213.306)"/><rect x="1804" y="124" width="9" height="25" fill="#506D84" rx="0" transform="matrix(.97819 .31134 -.2014 .9582 47.19 -779.404)"/><rect x="1887" y="911" width="8" height="9" fill="#506D84" rx="0" transform="matrix(.1047 .99324 -1.02906 -.21112 2810.662 -435.998)"/><rect x="1842" y="1137" width="10" height="15" fill="#889EAF" rx="0" transform="matrix(-.5467 .78813 -.8417 -.61576 3902.365 425.794)"/><rect x="1866" y="181" width="9" height="26" fill="#506D84" rx="0" transform="matrix(-.31332 .82193 -.96294 -.66558 2672.636 -570.224)"/><rect x="477" y="1251" width="11" height="28" fill="#D4B499" rx="0" transform="matrix(-.82946 .56469 -.54116 -.83718 1714.283 1983.766)"/><rect x="1576" y="1378" width="12" height="30" fill="#889EAF" rx="0" transform="matrix(.5454 .78993 -.83981 .61716 1866.642 -827.012)"/><rect x="1489" y="1105" width="10" height="27" fill="#D4B499" rx="0" transform="matrix(.28675 1 -1.08767 -.30573 2733.857 423.221)"/><rect x="581" y="858" width="9" height="20" fill="#f3d5c0" rx="0" transform="matrix(-.9667 .22664 -.22506 -.98169 1444.605 1515.516)"/><rect x="243" y="16" width="7" height="20" fill="#889EAF" rx="0" transform="matrix(-.53416 .64318 -.91819 -.76651 413.289 -104.006)"/><rect x="1486" y="98" width="13" height="30" fill="#f3d5c0" rx="0" transform="matrix(.37967 1.02648 -.9004 .19953 977.786 -985.264)"/><rect x="480" y="1085" width="9" height="9" fill="#f3d5c0" rx="0" transform="matrix(.96305 .64859 -.35255 .80094 507.887 23.438)"/><rect x="1706" y="414" width="9" height="22" fill="#f3d5c0" rx="0" transform="matrix(-.84435 .2646 -.62811 -.9875 3560.757 755.667)"/><rect x="924" y="325" width="9" height="21" fill="#506D84" rx="0" transform="matrix(.85733 .50623 -.49045 .87682 326.864 -575.77)"/><rect x="265" y="580" width="10" height="19" fill="#889EAF" rx="0" transform="matrix(-.3434 .6961 -1.0552 -.7731 1163.458 934.714)"/><rect x="295" y="263" width="8" height="17" fill="#f3d5c0" rx="0" transform="matrix(.7952 .8573 -.68866 .51512 339.896 -129.905)"/><rect x="595" y="496" width="8" height="20" fill="#889EAF" rx="0" transform="matrix(-1.00376 -.18365 -.24756 -1.04155 1387.828 1349.287)"/><rect x="808" y="1159" width="10" height="19" fill="#506D84" rx="0" transform="matrix(-.94945 .39288 -.30853 -.92558 1964.32 1845.17)"/><rect x="1155" y="1128" width="10" height="17" fill="#506D84" rx="0" transform="matrix(.76887 .70754 -.64448 .70754 1135.128 -528.869)"/><rect x="1721" y="1048" width="11" height="14" fill="#f3d5c0" rx="0" transform="matrix(.25483 1.03386 -.9539 .05418 2213.353 -324.503)"/><rect x="662" y="1222" width="7" height="10" fill="#f3d5c0" rx="0" transform="matrix(.0835 .96788 -1.06864 -.41084 2175.624 1303.212)"/><rect x="1584" y="207" width="12" height="23" fill="#D4B499" rx="0" transform="matrix(.89957 .57602 -.35083 .887 142.291 -343.702)"/><rect x="512" y="1078" width="8" height="8" fill="#f3d5c0" rx="0" transform="matrix(-.06945 .98938 -.98816 -.32147 1578.08 1067.27)"/><rect x="1034" y="474" width="10" height="25" fill="#D4B499" rx="0" transform="matrix(1.08111 .70948 -.25013 .76083 247.599 -322.866)"/><rect x="1982" y="1228" width="11" height="30" fill="#f3d5c0" rx="0" transform="matrix(.5633 .82936 -.81132 .58073 1629.68 -812.412)"/><rect x="1107" y="431" width="7" height="9" fill="#f3d5c0" rx="0" transform="matrix(-.08719 .99878 -.99665 -.05234 1634.103 -670.235)"/><rect x="1575" y="800" width="12" height="25" fill="#D4B499" rx="0" transform="matrix(-.67742 .49363 -.75176 -.92839 3309.118 1300.08)"/><rect x="720" y="200" width="12" height="28" fill="#f3d5c0" rx="0" transform="matrix(-1.01333 .12194 .05242 -.99315 1423.948 312.65)"/><rect x="1366" y="1066" width="9" height="9" fill="#506D84" rx="0" transform="matrix(.65553 1.03634 -.90758 .09067 1863.305 -53.88)"/><rect x="1381" y="701" width="7" height="8" fill="#506D84" rx="0" transform="matrix(.10435 .98223 -.99781 .19093 1850.987 -741.146)"/><rect x="521" y="1254" width="11" height="32" fill="#506D84" rx="0" transform="matrix(-.1286 .90656 -1.0258 -.54471 2023.95 1665.774)"/><rect x="1979" y="496" width="13" height="34" fill="#f3d5c0" rx="0" transform="matrix(-.85944 .27669 -.61692 -.96493 4192.405 632.351)"/><rect x="1020" y="686" width="9" height="24" fill="#889EAF" rx="0" transform="matrix(-.10524 .99924 -1.00628 .05237 1753.388 -398.049)"/><rect x="1689" y="733" width="13" height="26" fill="#506D84" rx="0" transform="matrix(.5515 .9599 -.81896 .38782 1308.455 -716.503)"/><rect x="1356" y="1293" width="7" height="15" fill="#D4B499" rx="0" transform="matrix(-.97947 .05246 -.37146 -1.00107 3522.125 2626.13)"/><rect x="1294" y="936" width="11" height="18" fill="#889EAF" rx="0" transform="matrix(.9027 .31072 -.44013 .9563 514.141 -499.061)"/><rect x="535" y="1145" width="13" height="33" fill="#506D84" rx="0" transform="matrix(-.25428 .99034 -.9557 -.2105 1902.308 783.965)"/><rect x="1806" y="1036" width="13" height="29" fill="#f3d5c0" rx="0" transform="matrix(.35544 1.04974 -.99626 -.1289 2450.182 -92.655)"/><rect x="1002" y="651" width="13" height="34" fill="#D4B499" rx="0" transform="matrix(.65865 .82028 -.75791 .57436 888.313 -490.07)"/><rect x="925" y="684" width="10" height="12" fill="#889EAF" rx="0" transform="matrix(-.76628 .48845 -.66488 -.88119 2171.767 957.95)"/><rect x="871" y="649" width="9" height="9" fill="#506D84" rx="0" transform="matrix(.86668 .81964 -.56695 .61765 592.278 -265.603)"/><rect x="1087" y="1087" width="10" height="18" fill="#889EAF" rx="0" transform="matrix(.5189 .91355 -.8636 .40674 1606.437 -347.375)"/><rect x="1406" y="57" width="11" height="11" fill="#506D84" rx="0" transform="matrix(1.05555 .53121 -.19325 .85012 -13.952 -641.738)"/><rect x="412" y="303" width="11" height="18" fill="#889EAF" rx="0" transform="matrix(-.48745 .80951 -.88116 -.58814 943.04 142.95)"/><rect x="899" y="1371" width="8" height="10" fill="#889EAF" rx="0" transform="matrix(-.68235 .75482 -.73166 -.65616 2452.979 1613.03)"/><rect x="383" y="772" width="12" height="28" fill="#506D84" rx="0" transform="matrix(.56055 .86655 -.83036 .5003 904.796 42.087)"/><rect x="1937" y="908" width="13" height="13" fill="#506D84" rx="0" transform="matrix(.2564 .94913 -.9653 .32681 2156.169 -1058.97)"/><rect x="1853" y="1361" width="9" height="19" fill="#506D84" rx="0" transform="matrix(-.39157 .94487 -.91583 -.3439 3592.002 281.958)"/><rect x="1085" y="218" width="13" height="21" fill="#D4B499" rx="0" transform="matrix(-.07147 1.0049 -.99263 -.0351 1348.092 -745.604)"/><rect x="1277" y="742" width="10" height="13" fill="#889EAF" rx="0" transform="matrix(-.08716 .98703 -.9962 -.19186 2139.385 -238.527)"/><rect x="1655" y="895" width="8" height="12" fill="#f3d5c0" rx="0" transform="matrix(-.3893 .9113 -.9158 -.42495 3054.778 -53.602)"/><rect x="358" y="19" width="11" height="28" fill="#506D84" rx="0" transform="matrix(-.08705 .99324 -1.02531 .21112 432.798 -399.103)"/><rect x="383" y="946" width="11" height="28" fill="#f3d5c0" rx="0" transform="matrix(.00466 .91963 -1.08998 -.50976 1663.954 1218.324)"/><rect x="272" y="505" width="7" height="11" fill="#f3d5c0" rx="0" transform="matrix(-.64199 .4884 -.84014 -.91853 974.626 923.856)"/><rect x="1561" y="1066" width="13" height="17" fill="#889EAF" rx="0" transform="matrix(-.96045 .43844 -.31161 -.89893 3233.314 1380.51)"/><rect x="779" y="1195" width="10" height="12" fill="#889EAF" rx="0" transform="matrix(.24295 .98616 -.9712 .17389 1902.349 177.926)"/><rect x="175" y="994" width="12" height="15" fill="#D4B499" rx="0" transform="matrix(-.63002 .80951 -.77758 -.58814 985.608 1450.325)"/><rect x="64" y="541" width="13" height="19" fill="#f3d5c0" rx="0" transform="matrix(.9991 .26205 -.08746 .97797 58.013 4.822)"/><rect x="723" y="1036" width="13" height="17" fill="#D4B499" rx="0" transform="matrix(.66265 .89657 -.76303 .47671 1104.56 21.156)"/><rect x="1117" y="374" width="10" height="10" fill="#D4B499" rx="0" transform="matrix(-.9397 .15936 -.34202 -1.00617 2305.96 799.63)"/><rect x="1624" y="572" width="13" height="31" fill="#f3d5c0" rx="0" transform="matrix(.95631 .34459 -.27457 .94675 191.262 -330.367)"/><rect x="779" y="93" width="12" height="20" fill="#506D84" rx="0" transform="matrix(-.12089 .9901 -.99085 -.15682 987.01 -712.97)"/><rect x="1937" y="603" width="7" height="19" fill="#506D84" rx="0" transform="matrix(-.71297 .52654 -.7126 -.87632 3796.271 539.95)"/><rect x="171" y="480" width="13" height="28" fill="#f3d5c0" rx="0" transform="matrix(-.98374 -.07063 .09093 -1.01 215.13 1033.589)"/><rect x="1874" y="43" width="10" height="14" fill="#D4B499" rx="0" transform="matrix(1.0819 .4565 -.06727 .89591 -70.118 -655.052)"/><rect x="15" y="326" width="11" height="18" fill="#D4B499" rx="0" transform="matrix(.9742 .46947 -.29784 .88295 165.424 29.588)"/><rect x="1629" y="1102" width="10" height="26" fill="#D4B499" rx="0" transform="matrix(-1.00137 .01745 .07002 -.99985 3094.62 2201.313)"/><rect x="1254" y="383" width="11" height="28" fill="#f3d5c0" rx="0" transform="matrix(-.97003 -.05535 -.44292 -1.05617 2788.656 1319.696)"/><rect x="1818" y="373" width="8" height="19" fill="#D4B499" rx="0" transform="matrix(.99758 .01755 .16641 1.00536 -4.471 -225.522)"/><rect x="1475" y="568" width="13" height="18" fill="#889EAF" rx="0" transform="matrix(.10649 .9604 -1.00663 .31205 1878.771 -1234.104)"/><rect x="1214" y="429" width="12" height="17" fill="#f3d5c0" rx="0" transform="matrix(-.90258 .42423 -.42161 -.90977 2534.539 211.224)"/><rect x="1919" y="1361" width="11" height="29" fill="#D4B499" rx="0" transform="matrix(.86563 .86392 -.6166 .53984 1478.624 -655.577)"/><rect x="550" y="1046" width="9" height="21" fill="#506D84" rx="0" transform="matrix(-.10909 .93405 -1.01973 -.43556 1796.866 1136.985)"/><rect x="1618" y="304" width="12" height="19" fill="#f3d5c0" rx="0" transform="matrix(-.78662 .75655 -.63798 -.65766 3080.47 -822.526)"/><rect x="561" y="917" width="11" height="17" fill="#D4B499" rx="0" transform="matrix(.19256 .99772 -.98882 .06977 1501.255 285.836)"/><rect x="1225" y="888" width="7" height="8" fill="#D4B499" rx="0" transform="matrix(-.3232 .90768 -.93702 -.46249 2402.122 428.246)"/><rect x="1040" y="197" width="13" height="21" fill="#506D84" rx="0" transform="matrix(.66913 .78993 -.74314 .61716 500.457 -674.05)"/><rect x="1615" y="166" width="11" height="20" fill="#889EAF" rx="0" transform="matrix(.59912 .6508 -.82257 .7756 801.452 -1271.788)"/><rect x="891" y="1356" width="13" height="26" fill="#889EAF" rx="0" transform="matrix(.34717 1.0457 -.9563 0 1981.22 704.885)"/><rect x="1535" y="738" width="10" height="15" fill="#D4B499" rx="0" transform="matrix(.62112 .86826 -.74837 .56385 978.623 -599.323)"/><rect x="764" y="720" width="8" height="9" fill="#889EAF" rx="0" transform="matrix(.02718 1.0043 -.99858 -.10556 1635.806 -78.26)"/><rect x="1269" y="225" width="10" height="10" fill="#889EAF" rx="0" transform="matrix(.90223 .98263 -.6893 .35765 472.49 -714.627)"/><rect x="1472" y="47" width="13" height="28" fill="#f3d5c0" rx="0" transform="matrix(.42219 .8851 -.90533 .47062 908.783 -1379.72)"/><rect x="1747" y="1375" width="7" height="11" fill="#889EAF" rx="0" transform="matrix(-.86562 .78913 -.56625 -.63903 3896.83 572.638)"/><rect x="50" y="742" width="13" height="38" fill="#f3d5c0" rx="0" transform="matrix(-.49637 .82936 -.85819 -.58073 683.784 1165.022)"/><rect x="502" y="375" width="12" height="21" fill="#506D84" rx="0" transform="matrix(-.936 .69252 -.44027 -.74264 1111.62 230.412)"/><rect x="1441" y="574" width="10" height="19" fill="#506D84" rx="0" transform="matrix(1.0122 -.07002 -.19402 1.00137 14.998 -26.058)"/><rect x="1360" y="1247" width="13" height="20" fill="#D4B499" rx="0" transform="matrix(-.6279 .80303 -.77212 -.60513 2998.234 1063.927)"/><rect x="671" y="1314" width="11" height="14" fill="#506D84" rx="0" transform="matrix(.88887 .75975 -.51589 .68408 910.62 47.157)"/><rect x="992" y="1301" width="7" height="14" fill="#D4B499" rx="0" transform="matrix(-.20956 .85012 -1.04536 -.53121 2992.625 1226.146)"/><rect x="1257" y="119" width="10" height="24" fill="#D4B499" rx="0" transform="matrix(-.51389 .79575 -.85517 -.62171 2017.174 -614.436)"/><rect x="1238" y="1283" width="13" height="33" fill="#f3d5c0" rx="0" transform="matrix(-.10577 1.00356 -.9759 -.19507 2452.268 568.595)"/><rect x="316" y="297" width="10" height="25" fill="#f3d5c0" rx="0" transform="matrix(.56231 .8516 -.80908 .55304 339.455 -78.432)"/><rect x="552" y="295" width="11" height="17" fill="#f3d5c0" rx="0" transform="matrix(.31382 .98274 -.92758 .2818 597.227 -211.4)"/><rect x="1290" y="1175" width="8" height="9" fill="#506D84" rx="0" transform="matrix(.97086 -.08781 .29121 1.00368 25.839 -49.593)"/><rect x="1900" y="837" width="9" height="22" fill="#f3d5c0" rx="0" transform="matrix(-.91303 .30906 -.42554 -.9512 4096.858 1099.25)"/><rect x="246" y="181" width="11" height="25" fill="#889EAF" rx="0" transform="matrix(-.97957 .03516 -.3889 -1.0069 624.915 410.372)"/><rect x="1232" y="1380" width="12" height="17" fill="#889EAF" rx="0" transform="matrix(-1.02117 -.10686 -.35803 -1.01674 3411.13 3195.686)"/><rect x="1181" y="125" width="10" height="20" fill="#506D84" rx="0" transform="matrix(-.34298 .97267 -.94259 -.24251 1718.21 -1068.775)"/><rect x="1373" y="435" width="10" height="10" fill="#D4B499" rx="0" transform="matrix(.6857 .99197 -.83713 .24733 984.178 -742.86)"/><rect x="642" y="830" width="11" height="28" fill="#D4B499" rx="0" transform="matrix(-.6542 .69731 -.75664 -.72209 1848.527 945.284)"/><rect x="1287" y="544" width="7" height="8" fill="#f3d5c0" rx="0" transform="matrix(-.68685 .7756 -.713 -.6508 2597.669 -300.66)"/><rect x="1710" y="505" width="12" height="28" fill="#506D84" rx="0" transform="matrix(-.99342 .0175 -.2459 -1.00229 3649.545 1129.161)"/><rect x="1127" y="608" width="12" height="15" fill="#D4B499" rx="0" transform="matrix(.0764 .93382 -1.11149 -.49652 1981.295 253.21)"/><rect x="1157" y="227" width="9" height="10" fill="#889EAF" rx="0" transform="matrix(.59796 .81347 -.79485 .59102 620.396 -727.888)"/><rect x="1371" y="1288" width="10" height="10" fill="#f3d5c0" rx="0" transform="matrix(-.9587 -.01825 -.1287 -1.04553 2620.73 3090.67)"/><rect x="1231" y="253" width="13" height="28" fill="#D4B499" rx="0" transform="matrix(-.9452 .47126 -.34428 -.88632 2490.793 -187.81)"/><rect x="1158" y="318" width="8" height="13" fill="#889EAF" rx="0" transform="matrix(.71587 .7264 -.68533 .70149 580.969 -910.528)"/><rect x="1287" y="119" width="10" height="24" fill="#506D84" rx="0" transform="matrix(-.72502 .53 -.72651 -.84818 2350.943 -465.2)"/><rect x="225" y="1115" width="9" height="23" fill="#D4B499" rx="0" transform="matrix(.72985 .7862 -.65953 .6597 701.769 255.906)"/><rect x="530" y="773" width="9" height="12" fill="#506D84" rx="0" transform="matrix(-.77438 .76897 -.65066 -.64524 1391.206 823.867)"/><rect x="899" y="561" width="8" height="10" fill="#D4B499" rx="0" transform="matrix(-.32153 .90998 -.92796 -.48384 1649.358 243.289)"/><rect x="1023" y="1279" width="7" height="13" fill="#506D84" rx="0" transform="matrix(-.65419 .50375 -.852 -.87253 3198.031 2016.07)"/><rect x="1437" y="563" width="7" height="8" fill="#f3d5c0" rx="0" transform="matrix(.96274 .70357 -.3521 .78139 325.684 -421.487)"/><rect x="578" y="1236" width="7" height="13" fill="#506D84" rx="0" transform="matrix(-.9884 -.05332 -.10365 -1.01732 1237.704 2650.556)"/><rect x="223" y="999" width="11" height="23" fill="#506D84" rx="0" transform="matrix(.35615 .99878 -.98255 .05234 1430.89 733.373)"/><rect x="183" y="697" width="11" height="11" fill="#f3d5c0" rx="0" transform="matrix(.11477 .94772 -1.10868 -.44193 1149.392 891.94)"/><rect x="500" y="965" width="13" height="18" fill="#889EAF" rx="0" transform="matrix(.97756 .35842 -.24338 .93372 384.064 -125.828)"/><rect x="667" y="1358" width="9" height="22" fill="#D4B499" rx="0" transform="matrix(.12278 1 -1.03754 -.30573 2202.74 1321.343)"/><rect x="934" y="211" width="7" height="11" fill="#506D84" rx="0" transform="matrix(-.20686 .95105 -.97206 -.36508 1327.958 -413.843)"/><rect x="335" y="149" width="9" height="18" fill="#D4B499" rx="0" transform="matrix(.81188 .51512 -.5901 .8573 139.873 -146.41)"/><rect x="943" y="1058" width="7" height="19" fill="#506D84" rx="0" transform="matrix(-.85518 .24733 -.61328 -.99197 2634.314 2093.521)"/><rect x="1989" y="123" width="9" height="15" fill="#889EAF" rx="0" transform="matrix(-1.0348 .22842 .10437 -.9894 4077.774 -547.249)"/><rect x="1107" y="1011" width="9" height="25" fill="#506D84" rx="0" transform="matrix(-.03612 1.00737 -.99016 -.07044 2041.086 132.12)"/><rect x="1402" y="1068" width="10" height="12" fill="#889EAF" rx="0" transform="matrix(.51066 .89976 -.85121 .45845 1513.774 -486.603)"/><rect x="1513" y="1269" width="10" height="26" fill="#889EAF" rx="0" transform="matrix(.96058 .32636 -.27435 .94783 555.94 -534.683)"/><rect x="743" y="1002" width="8" height="18" fill="#889EAF" rx="0" transform="matrix(.6018 .78813 -.79865 .61576 1069.13 -187.223)"/><rect x="1985" y="391" width="9" height="22" fill="#506D84" rx="0" transform="matrix(-.45785 .81018 -.8501 -.67983 3108.657 -251.532)"/><rect x="966" y="933" width="7" height="8" fill="#f3d5c0" rx="0" transform="matrix(-.53064 .61716 -.94113 -.78993 2711.768 1146.622)"/><rect x="1935" y="386" width="7" height="13" fill="#D4B499" rx="0" transform="matrix(.645 .70721 -.76899 .70721 945.17 -1222.18)"/><rect x="1676" y="1110" width="8" height="12" fill="#D4B499" rx="0" transform="matrix(-.15603 1.00921 -.98542 -.03524 3057.225 -776.255)"/><rect x="33" y="1321" width="8" height="23" fill="#889EAF" rx="0" transform="matrix(-.75512 .61604 -.65677 -.7885 1056.55 2359.079)"/><rect x="600" y="93" width="10" height="13" fill="#506D84" rx="0" transform="matrix(.61566 .73415 -.78801 .6846 310.932 -465.708)"/><rect x="225" y="992" width="7" height="11" fill="#506D84" rx="0" transform="matrix(.67295 .81013 -.74545 .5886 974.406 213.29)"/><rect x="1130" y="1341" width="9" height="21" fill="#f3d5c0" rx="0" transform="matrix(1.0988 .59381 -.11479 .84805 486.628 -164.327)"/><rect x="1446" y="283" width="10" height="17" fill="#889EAF" rx="0" transform="matrix(-.67601 .52654 -.7741 -.87632 2720.598 91.35)"/><rect x="495" y="82" width="7" height="19" fill="#f3d5c0" rx="0" transform="matrix(.96512 .56131 -.29538 .86435 51.95 -143.112)"/><rect x="1754" y="239" width="7" height="17" fill="#f3d5c0" rx="0" transform="matrix(-.76776 .52015 -.59272 -.90093 3147.928 60.271)"/><rect x="1158" y="46" width="9" height="23" fill="#D4B499" rx="0" transform="matrix(-.26389 1.00229 -.99311 -.0175 1530.567 -1187.945)"/><rect x="415" y="554" width="11" height="21" fill="#889EAF" rx="0" transform="matrix(.48812 .7233 -.91117 .69848 637.857 -178.14)"/><rect x="38" y="88" width="7" height="7" fill="#889EAF" rx="0" transform="matrix(.1915 1.00413 -.98585 .05262 127.106 49.375)"/><rect x="288" y="925" width="10" height="15" fill="#f3d5c0" rx="0" transform="matrix(-.96698 .13936 -.29503 -.99163 951.067 1831.714)"/><rect x="499" y="254" width="9" height="26" fill="#f3d5c0" rx="0" transform="matrix(.23087 1 -1.03245 -.14054 740.9 -128.213)"/><rect x="1662" y="936" width="7" height="15" fill="#D4B499" rx="0" transform="matrix(1.00795 .32636 -.13676 .94783 337.392 -610.796)"/><rect x="399" y="1186" width="7" height="10" fill="#f3d5c0" rx="0" transform="matrix(-.9276 .63279 -.43482 -.78143 1132.288 1824.678)"/><rect x="293" y="646" width="10" height="20" fill="#506D84" rx="0" transform="matrix(.99994 .41582 -.15897 .93395 141.998 -17.248)"/><rect x="759" y="756" width="13" height="37" fill="#D4B499" rx="0" transform="matrix(.01745 .9977 -.99985 .14022 1526.522 -191.834)"/><rect x="396" y="827" width="7" height="19" fill="#f3d5c0" rx="0" transform="matrix(.54944 .66424 -.87343 .76412 801.959 -131.321)"/><rect x="1671" y="1161" width="9" height="9" fill="#f3d5c0" rx="0" transform="matrix(-.26483 .91521 -.96915 -.42677 3533.1 -106.016)"/><rect x="921" y="1334" width="8" height="15" fill="#f3d5c0" rx="0" transform="matrix(.99754 .60852 -.27034 .83756 531.982 -97.11)"/><rect x="514" y="854" width="10" height="14" fill="#506D84" rx="0" transform="matrix(-.19217 .93415 -.99672 -.35859 1656.076 666.795)"/><rect x="298" y="627" width="7" height="16" fill="#506D84" rx="0" transform="matrix(-.35051 1.00306 -.97244 -.07014 918.3 345.428)"/><rect x="601" y="649" width="12" height="23" fill="#f3d5c0" rx="0" transform="matrix(.97198 .07044 -.29604 1.00737 162.22 -132.933)"/><rect x="1711" y="1328" width="9" height="16" fill="#889EAF" rx="0" transform="matrix(-.79397 .45406 -.6441 -.89114 4239.603 1717.683)"/><rect x="1509" y="496" width="13" height="23" fill="#D4B499" rx="0" transform="matrix(1.08159 .26281 .23153 .98083 10.574 -121.337)"/><rect x="1447" y="414" width="8" height="22" fill="#889EAF" rx="0" transform="matrix(.54965 .74598 -.8456 .67169 991.997 -1069.835)"/><rect x="396" y="201" width="12" height="20" fill="#506D84" rx="0" transform="matrix(-.99637 -.01758 -.2104 -1.00736 874.301 479.98)"/><rect x="1754" y="906" width="12" height="31" fill="#889EAF" rx="0" transform="matrix(-.2102 1.00967 -.99409 .01762 2987.031 -1119.118)"/><rect x="91" y="404" width="10" height="11" fill="#889EAF" rx="0" transform="matrix(-.75389 .69635 -.65537 -.7211 443.78 631.226)"/><rect x="482" y="585" width="12" height="22" fill="#D4B499" rx="0" transform="matrix(-.82703 .40698 -.59955 -.9141 1357.02 959.238)"/><rect x="47" y="747" width="9" height="9" fill="#f3d5c0" rx="0" transform="matrix(.90382 .64367 -.47646 .7671 563.65 139.18)"/><rect x="705" y="1378" width="10" height="11" fill="#506D84" rx="0" transform="matrix(.95986 -.12307 .30821 1.0023 19.188 -15.59)"/><rect x="1137" y="242" width="12" height="24" fill="#889EAF" rx="0" transform="matrix(-.22272 .96256 -.94435 -.40858 1563.337 -392.98)"/><rect x="213" y="98" width="8" height="18" fill="#506D84" rx="0" transform="matrix(1.01669 .24733 .03447 .99197 3.399 -6.686)"/><rect x="930" y="701" width="7" height="18" fill="#506D84" rx="0" transform="matrix(-.41261 .68962 -.99183 -.7659 2223.261 842.778)"/><rect x="156" y="833" width="11" height="14" fill="#f3d5c0" rx="0" transform="matrix(-.13705 .95864 -1.00124 -.29309 1216 920.078)"/><rect x="537" y="605" width="13" height="28" fill="#889EAF" rx="0" transform="matrix(.92286 .80105 -.474 .67216 417.849 -66.27)"/><rect x="97" y="375" width="10" height="25" fill="#f3d5c0" rx="0" transform="matrix(.54282 .93773 -.83599 .39804 363.466 157.436)"/><rect x="340" y="562" width="10" height="18" fill="#506D84" rx="0" transform="matrix(-.64212 .73314 -.76521 -.68366 993.079 732.564)"/><rect x="449" y="1386" width="7" height="7" fill="#889EAF" rx="0" transform="matrix(.9516 .44193 -.22209 .94772 196.821 11.016)"/><rect x="172" y="593" width="7" height="7" fill="#D4B499" rx="0" transform="matrix(-.99378 .12254 -.06688 -.99801 292.405 1188.755)"/><rect x="355" y="257" width="8" height="16" fill="#f3d5c0" rx="0" transform="matrix(-.59308 .69273 -.78487 -.76936 754.65 316.382)"/><rect x="394" y="683" width="10" height="18" fill="#D4B499" rx="0" transform="matrix(1.08215 .24565 .2695 .98526 43.23 -17.464)"/><rect x="1829" y="579" width="10" height="20" fill="#f3d5c0" rx="0" transform="matrix(.9095 .61308 -.42417 .81358 432.325 -658.094)"/><rect x="1018" y="405" width="8" height="17" fill="#f3d5c0" rx="0" transform="matrix(-.92614 .14132 -.48632 -1.00554 2274.293 865.07)"/><rect x="357" y="616" width="12" height="29" fill="#f3d5c0" rx="0" transform="matrix(-.24233 .7735 -1.06686 -.7213 1284.205 929.49)"/><rect x="424" y="163" width="8" height="22" fill="#506D84" rx="0" transform="matrix(-.97935 -.1256 -.01435 -1.02293 820.153 512.46)"/><rect x="970" y="341" width="8" height="20" fill="#f3d5c0" rx="0" transform="matrix(.01745 .99708 -.99985 .17581 1307.948 -836.136)"/><rect x="53" y="1209" width="7" height="9" fill="#D4B499" rx="0" transform="matrix(.77648 .75655 -.6468 .65766 1076.77 368.732)"/><rect x="1908" y="194" width="11" height="31" fill="#D4B499" rx="0" transform="matrix(.54123 .8888 -.81263 .51315 944.96 -1156.968)"/><rect x="1500" y="677" width="13" height="35" fill="#889EAF" rx="0" transform="matrix(-.891 .57921 -.45399 -.8272 3164.098 184.682)"/><rect x="1243" y="391" width="8" height="13" fill="#D4B499" rx="0" transform="matrix(.59012 .89171 -.76686 .5358 696.355 -569.87)"/><rect x="533" y="453" width="11" height="23" fill="#506D84" rx="0" transform="matrix(.7019 .62516 -.70121 .80017 505.61 -338.778)"/><rect x="1380" y="1152" width="10" height="15" fill="#f3d5c0" rx="0" transform="matrix(.7148 .80059 -.71044 .60328 1444.617 -745.668)"/><rect x="685" y="714" width="11" height="28" fill="#889EAF" rx="0" transform="matrix(-.68496 .53 -.79063 -.84818 1971.667 967.455)"/><rect x="1201" y="1368" width="8" height="11" fill="#f3d5c0" rx="0" transform="matrix(.39279 1.04171 -.9256 .09114 2033.395 361.464)"/><rect x="1497" y="122" width="9" height="9" fill="#506D84" rx="0" transform="matrix(1.00552 .22776 -.0353 .98652 8.904 -102.454)"/><rect x="111" y="63" width="11" height="19" fill="#889EAF" rx="0" transform="matrix(1.01173 -.08781 -.17596 1.00368 3.211 -4.341)"/><rect x="1219" y="1030" width="10" height="19" fill="#D4B499" rx="0" transform="matrix(.83285 .79393 -.60886 .62028 1025.946 -426.767)"/><rect x="1491" y="467" width="13" height="13" fill="#506D84" rx="0" transform="matrix(-.23205 .87971 -.9973 -.52859 2388.893 -247.862)"/><rect x="367" y="1215" width="13" height="26" fill="#506D84" rx="0" transform="matrix(1.06994 .59685 -.20281 .8215 593.937 62.135)"/><rect x="85" y="566" width="12" height="31" fill="#889EAF" rx="0" transform="matrix(.87017 .74472 -.50249 .71916 314.586 119.92)"/><rect x="276" y="899" width="10" height="12" fill="#506D84" rx="0" transform="matrix(1.12203 .62024 -.1233 .82308 394.107 55.882)"/><rect x="1318" y="836" width="10" height="21" fill="#D4B499" rx="0" transform="matrix(-.91652 .22842 -.408 -.9894 2899.774 1615.107)"/><rect x="905" y="934" width="9" height="23" fill="#D4B499" rx="0" transform="matrix(.95999 .77786 -.48005 .6527 766.003 -218.727)"/><rect x="249" y="64" width="11" height="13" fill="#889EAF" rx="0" transform="matrix(-.39256 .81213 -.92462 -.6345 421.93 -28.001)"/><rect x="747" y="167" width="11" height="16" fill="#506D84" rx="0" transform="matrix(.44482 .95689 -.90906 .29255 605.768 -622.532)"/><rect x="1253" y="1011" width="8" height="15" fill="#506D84" rx="0" transform="matrix(-.2587 .96651 -.96533 -.25898 2528.274 111.254)"/><rect x="116" y="314" width="12" height="25" fill="#889EAF" rx="0" transform="matrix(.92252 .27564 -.41073 .96126 97.67 -20.98)"/><rect x="1328" y="317" width="10" height="20" fill="#506D84" rx="0" transform="matrix(1.07678 .38162 .0447 .94454 29.178 -231.452)"/><rect x="1773" y="242" width="12" height="23" fill="#506D84" rx="0" transform="matrix(.96534 .07083 -.31275 1.01295 145.147 -442.98)"/><rect x="660" y="1213" width="12" height="26" fill="#f3d5c0" rx="0" transform="matrix(-.9336 .1746 -.43247 -.99023 2023.262 2393.738)"/><rect x="1129" y="129" width="11" height="32" fill="#506D84" rx="0" transform="matrix(.59637 .89893 -.82156 .43844 603.15 -918.608)"/><rect x="1485" y="1259" width="7" height="17" fill="#506D84" rx="0" transform="matrix(.81288 .8158 -.59069 .63738 1056.32 -355.868)"/><rect x="51" y="519" width="9" height="20" fill="#D4B499" rx="0" transform="matrix(.30562 .98652 -.94311 .22776 499.837 362.556)"/><rect x="576" y="985" width="10" height="20" fill="#506D84" rx="0" transform="matrix(-1.03782 .26281 .0682 -.98083 974.756 1715.783)"/><rect x="1148" y="1145" width="10" height="12" fill="#506D84" rx="0" transform="matrix(-.28536 .8636 -.98647 -.5189 2799.115 894.095)"/><rect x="348" y="465" width="13" height="17" fill="#f3d5c0" rx="0" transform="matrix(.87462 .65482 -.48481 .78038 274.005 -59.236)"/><rect x="1908" y="1343" width="12" height="34" fill="#506D84" rx="0" transform="matrix(1.00375 .12339 .07038 1.00492 261.008 -546.002)"/><rect x="1454" y="56" width="12" height="18" fill="#889EAF" rx="0" transform="matrix(-.83158 .43053 -.5394 -.92327 2690.888 -219.763)"/><rect x="493" y="303" width="13" height="25" fill="#f3d5c0" rx="0" transform="matrix(1.02293 .12189 .12682 .9927 30.738 -67.298)"/><rect x="1308" y="798" width="9" height="11" fill="#f3d5c0" rx="0" transform="matrix(-.91727 .55928 -.4281 -.82916 2750.7 712.77)"/><rect x="1874" y="540" width="8" height="18" fill="#f3d5c0" rx="0" transform="matrix(1.02417 .55413 -.16561 .8868 163.584 -404.35)"/><rect x="694" y="502" width="11" height="23" fill="#889EAF" rx="0" transform="matrix(.0637 1.0181 -.98 .03555 1055.306 -80.946)"/><rect x="860" y="655" width="7" height="13" fill="#f3d5c0" rx="0" transform="matrix(.92246 .27568 -.41042 .9614 259.08 -227.593)"/><rect x="1266" y="787" width="10" height="23" fill="#D4B499" rx="0" transform="matrix(1.0201 .50771 -.20274 .87939 298.298 -324.881)"/><rect x="1989" y="632" width="10" height="15" fill="#506D84" rx="0" transform="matrix(-.99925 .03495 .0004 -1.00076 3921.162 1314.304)"/><rect x="319" y="370" width="11" height="28" fill="#f3d5c0" rx="0" transform="matrix(.91752 .69476 -.48922 .71945 319.038 -112.055)"/><rect x="1321" y="1136" width="13" height="18" fill="#f3d5c0" rx="0" transform="matrix(.35667 .97542 -.92963 .26136 1871.951 -262.56)"/><rect x="1456" y="456" width="10" height="23" fill="#506D84" rx="0" transform="matrix(-.98101 -.10874 -.13752 -1.0346 2927.591 1528.981)"/><rect x="1781" y="1347" width="11" height="13" fill="#f3d5c0" rx="0" transform="matrix(.25674 .95996 -.96322 .29349 2446.174 -602.403)"/><rect x="1492" y="391" width="7" height="20" fill="#f3d5c0" rx="0" transform="matrix(.19477 1.0094 -1.03925 -.25167 1752.39 -578.807)"/><rect x="260" y="130" width="7" height="19" fill="#D4B499" rx="0" transform="matrix(.87833 .5339 -.4674 .85442 88.256 -88.02)"/><rect x="1625" y="677" width="8" height="22" fill="#506D84" rx="0" transform="matrix(.80169 .66913 -.60411 .74314 798.876 -913.297)"/><rect x="979" y="283" width="12" height="12" fill="#506D84" rx="0" transform="matrix(.98088 .22526 -.19068 .9757 67.998 -163.239)"/><rect x="428" y="462" width="8" height="14" fill="#f3d5c0" rx="0" transform="matrix(-.6035 .65696 -.82792 -.75575 1167.694 562.278)"/><rect x="820" y="1071" width="11" height="25" fill="#D4B499" rx="0" transform="matrix(-.00636 .94505 -1.05505 -.46093 2163.862 1071.003)"/><rect x="1250" y="839" width="8" height="17" fill="#f3d5c0" rx="0" transform="matrix(-.12187 .96216 -.99255 -.36934 2248.007 266.622)"/><rect x="262" y="1238" width="10" height="27" fill="#f3d5c0" rx="0" transform="matrix(.90052 .22842 -.4773 .9894 518.52 -94.804)"/><rect x="1377" y="751" width="11" height="11" fill="#889EAF" rx="0" transform="matrix(-.88137 .26205 -.52682 -.97797 3119.303 1353.02)"/><rect x="1151" y="857" width="11" height="15" fill="#f3d5c0" rx="0" transform="matrix(.68673 .87462 -.7627 .48481 1221.228 -566.116)"/><rect x="1712" y="765" width="13" height="30" fill="#889EAF" rx="0" transform="matrix(-.56777 .52859 -.94691 -.87971 3770.232 954.55)"/><rect x="857" y="541" width="8" height="23" fill="#D4B499" rx="0" transform="matrix(.19512 .99634 -1.02763 -.12233 1405.712 -162.429)"/><rect x="42" y="495" width="8" height="21" fill="#D4B499" rx="0" transform="matrix(.93145 .2443 -.3575 .97983 192.582 -7.507)"/><rect x="873" y="1325" width="7" height="15" fill="#D4B499" rx="0" transform="matrix(.61535 1.04553 -.9672 -.01825 2145.952 708.382)"/><rect x="1980" y="642" width="12" height="32" fill="#506D84" rx="0" transform="matrix(1.1382 .76079 -.21528 .73469 303.172 -652.514)"/><rect x="1116" y="1241" width="9" height="24" fill="#D4B499" rx="0" transform="matrix(1.05523 .41744 -.02549 .93758 236.601 -130.83)"/><rect x="1107" y="369" width="12" height="23" fill="#f3d5c0" rx="0" transform="matrix(-.15226 .82193 -1.09335 -.66558 1874.813 102.187)"/><rect x="468" y="1131" width="11" height="15" fill="#889EAF" rx="0" transform="matrix(.73368 .8215 -.68424 .59685 926.44 153.495)"/><rect x="1729" y="1207" width="11" height="28" fill="#D4B499" rx="0" transform="matrix(.3201 .93415 -.94117 .37742 2075.616 -647.137)"/><rect x="1499" y="368" width="7" height="12" fill="#506D84" rx="0" transform="matrix(-.52953 .70149 -.8772 -.7264 2698.041 -197.142)"/><rect x="825" y="244" width="10" height="17" fill="#889EAF" rx="0" transform="matrix(-.95198 .10614 -.36399 -1.00986 1746.942 565.745)"/><rect x="391" y="924" width="11" height="14" fill="#889EAF" rx="0" transform="matrix(-.97822 -.10822 -.06636 -1.0296 755.395 2038.712)"/><rect x="948" y="530" width="13" height="20" fill="#D4B499" rx="0" transform="matrix(.7704 .93415 -.75923 .37742 830.057 -438.252)"/><rect x="1267" y="749" width="11" height="11" fill="#D4B499" rx="0" transform="matrix(-.97147 .1397 -.24556 -.99405 2818.995 1215.408)"/><rect x="1814" y="95" width="8" height="16" fill="#D4B499" rx="0" transform="matrix(-.42547 .7524 -.94597 -.67747 2750.857 -907.156)"/><rect x="508" y="432" width="9" height="21" fill="#f3d5c0" rx="0" transform="matrix(.53632 1.04553 -.96581 -.01825 814.403 71.427)"/><rect x="527" y="426" width="7" height="16" fill="#f3d5c0" rx="0" transform="matrix(-.32842 .86721 -.9635 -.50069 1224.164 163.439)"/><rect x="46" y="371" width="11" height="18" fill="#889EAF" rx="0" transform="matrix(-.75432 .43556 -.67827 -.93405 368.679 725.35)"/><rect x="685" y="802" width="11" height="12" fill="#D4B499" rx="0" transform="matrix(-.65075 .65646 -.77472 -.75517 1867.989 989.005)"/><rect x="1417" y="1346" width="7" height="11" fill="#506D84" rx="0" transform="matrix(-.56116 .7264 -.79556 -.7522 3105.128 1770.55)"/><rect x="1172" y="860" width="9" height="16" fill="#506D84" rx="0" transform="matrix(.54058 .83937 -.82674 .56616 1353.913 -797.29)"/><rect x="267" y="1033" width="12" height="14" fill="#889EAF" rx="0" transform="matrix(.06978 .99954 -.99802 .0349 1310.127 735.589)"/><rect x="431" y="505" width="12" height="31" fill="#506D84" rx="0" transform="matrix(-.12223 .9707 -.99513 -.27835 1018.535 302.596)"/><rect x="815" y="90" width="11" height="18" fill="#506D84" rx="0" transform="matrix(.96 .19107 -.29486 .98297 39.516 -112.088)"/><rect x="210" y="462" width="11" height="23" fill="#506D84" rx="0" transform="matrix(-.8872 .60633 -.4719 -.80463 614.526 697.369)"/><rect x="536" y="56" width="7" height="8" fill="#f3d5c0" rx="0" transform="matrix(.0136 1.00506 -.99402 .07028 569.55 -420.202)"/><rect x="558" y="184" width="10" height="29" fill="#889EAF" rx="0" transform="matrix(-1.02646 .34333 -.0925 -.94328 1132.943 143.192)"/><rect x="1495" y="205" width="7" height="20" fill="#f3d5c0" rx="0" transform="matrix(-.36131 .87676 -.9403 -.486 2264.447 -889.544)"/><rect x="1249" y="336" width="7" height="8" fill="#889EAF" rx="0" transform="matrix(-.07046 .98178 -1.00487 -.19084 1720.438 -802.928)"/><rect x="1755" y="142" width="10" height="14" fill="#506D84" rx="0" transform="matrix(.53115 1.05762 -.94552 0 1112.82 -1106.396)"/><rect x="514" y="222" width="13" height="23" fill="#889EAF" rx="0" transform="matrix(.15676 .97496 -.98949 .22509 662.431 -344.703)"/><rect x="1834" y="607" width="11" height="26" fill="#889EAF" rx="0" transform="matrix(-.94656 .27716 -.30702 -.96656 3714.183 902.777)"/><rect x="1213" y="250" width="7" height="18" fill="#506D84" rx="0" transform="matrix(.38091 .83526 -.9403 .5634 987.063 -1052.384)"/><rect x="1481" y="602" width="11" height="26" fill="#889EAF" rx="0" transform="matrix(1.00168 .0349 .03511 .99954 27.439 -77.552)"/><rect x="1177" y="1312" width="7" height="20" fill="#f3d5c0" rx="0" transform="matrix(-.29486 .98297 -.96 -.19107 2578.527 476.062)"/><rect x="561" y="1130" width="9" height="15" fill="#889EAF" rx="0" transform="matrix(-.8707 .39127 -.50455 -.92177 1827.157 1935.113)"/><rect x="1350" y="964" width="10" height="22" fill="#506D84" rx="0" transform="matrix(.45171 1.01757 -.88672 .21629 1583.687 -226.146)"/><rect x="859" y="1087" width="7" height="15" fill="#889EAF" rx="0" transform="matrix(.6801 .90686 -.78557 .42288 1416.124 -120.385)"/><rect x="1509" y="20" width="8" height="14" fill="#D4B499" rx="0" transform="matrix(.95943 .2105 -.23677 .99034 41.671 -557.866)"/><rect x="1689" y="200" width="13" height="17" fill="#D4B499" rx="0" transform="matrix(.4345 .9601 -.89195 .3306 1118.193 -1189.323)"/><rect x="203" y="336" width="9" height="9" fill="#889EAF" rx="0" transform="matrix(-.96696 .03597 -.1125 -1.02999 384.327 735.482)"/><rect x="27" y="1364" width="10" height="19" fill="#D4B499" rx="0" transform="matrix(.84197 .90768 -.6727 .46249 1273.013 715.447)"/><rect x="228" y="496" width="13" height="28" fill="#f3d5c0" rx="0" transform="matrix(-.5985 .84497 -.7948 -.54873 805.417 562.914)"/><rect x="239" y="1370" width="8" height="21" fill="#f3d5c0" rx="0" transform="matrix(.72992 1.0446 -.8417 .16545 1592.65 981.932)"/><rect x="776" y="199" width="13" height="26" fill="#506D84" rx="0" transform="matrix(.63762 1.02068 -.91272 .10728 597.104 -428.772)"/><rect x="1380" y="675" width="9" height="15" fill="#889EAF" rx="0" transform="matrix(.25596 1.00244 -.99756 0 1901.267 -802.194)"/><rect x="480" y="72" width="9" height="18" fill="#506D84" rx="0" transform="matrix(.9757 .30977 -.22528 .95338 32.025 -112.428)"/><rect x="1544" y="1294" width="11" height="24" fill="#D4B499" rx="0" transform="matrix(.99694 .01746 -.17544 1 54.125 -54.093)"/><rect x="1038" y="187" width="8" height="12" fill="#D4B499" rx="0" transform="matrix(-.95451 .3908 -.31023 -.92065 2084.25 -54.708)"/><rect x="1400" y="1186" width="11" height="29" fill="#f3d5c0" rx="0" transform="matrix(-.58127 .75705 -.79753 -.68165 3050.98 1227.988)"/><rect x="1856" y="1164" width="9" height="9" fill="#506D84" rx="0" transform="matrix(-.95098 .2082 -.32914 -.97949 4203.245 1828.179)"/><rect x="790" y="115" width="10" height="25" fill="#889EAF" rx="0" transform="matrix(.92527 .44384 -.356 .91 87.081 -215.458)"/><rect x="240" y="774" width="8" height="13" fill="#889EAF" rx="0" transform="matrix(.528 1.0245 -.88299 .18065 878.747 459.495)"/><rect x="1936" y="1328" width="10" height="14" fill="#D4B499" rx="0" transform="matrix(-.45433 .9141 -.89169 -.40698 3991.135 36.27)"/><rect x="385" y="68" width="7" height="10" fill="#889EAF" rx="0" transform="matrix(.04297 .93828 -1.08582 -.43753 491.957 -155.484)"/><rect x="1332" y="946" width="8" height="14" fill="#506D84" rx="0" transform="matrix(-.27127 .74472 -1.08084 -.71916 3104.366 1001.403)"/><rect x="65" y="1087" width="12" height="31" fill="#506D84" rx="0" transform="matrix(.24878 1.002 -1.02416 -.10531 1439.02 1156.184)"/><rect x="221" y="1307" width="10" height="25" fill="#506D84" rx="0" transform="matrix(.90836 .48488 -.42363 .87475 649.046 59.625)"/><rect x="1210" y="739" width="13" height="27" fill="#f3d5c0" rx="0" transform="matrix(.61464 .74496 -.78893 .67076 944.744 -573.428)"/><rect x="443" y="572" width="13" height="19" fill="#506D84" rx="0" transform="matrix(.98184 .07044 -.15512 1.00737 125.529 -99.121)"/><rect x="204" y="46" width="9" height="9" fill="#D4B499" rx="0" transform="matrix(-.12338 .9512 -1.01121 -.30906 295.252 -135.857)"/><rect x="113" y="34" width="7" height="8" fill="#506D84" rx="0" transform="matrix(.48481 .97767 -.87462 .2989 93.255 -62.494)"/><rect x="1277" y="886" width="13" height="20" fill="#506D84" rx="0" transform="matrix(-.21433 .78133 -1.09355 -.6792 2893.951 845.637)"/><rect x="588" y="1221" width="10" height="26" fill="#f3d5c0" rx="0" transform="matrix(-.9992 .15682 -.06813 -.9901 1067.594 2404.258)"/><rect x="445" y="174" width="10" height="11" fill="#f3d5c0" rx="0" transform="matrix(-1.0396 -.21629 -.26755 -1.01757 1025.822 588.52)"/><rect x="1707" y="163" width="8" height="17" fill="#506D84" rx="0" transform="matrix(.67694 .60633 -.75092 .80463 684.236 -1214.017)"/><rect x="857" y="992" width="12" height="14" fill="#f3d5c0" rx="0" transform="matrix(.45553 .84857 -.89381 .53024 1312.023 -293.16)"/><rect x="850" y="774" width="9" height="17" fill="#889EAF" rx="0" transform="matrix(.00528 .99146 -1.00945 -.15703 1816.344 -16.585)"/><rect x="385" y="59" width="12" height="15" fill="#889EAF" rx="0" transform="matrix(.87321 .66913 -.52468 .74314 97.392 -244.55)"/><rect x="1972" y="92" width="12" height="29" fill="#506D84" rx="0" transform="matrix(-.00345 1.0148 -.98529 -.03544 2025.77 -1548.241)"/><rect x="1092" y="675" width="12" height="24" fill="#506D84" rx="0" transform="matrix(1.04582 .77456 -.38193 .67332 499.61 -372.543)"/><rect x="1821" y="274" width="9" height="21" fill="#D4B499" rx="0" transform="matrix(-.92108 .3306 -.34988 -.9601 3521.251 276.042)"/><rect x="1082" y="890" width="9" height="19" fill="#889EAF" rx="0" transform="matrix(1.03423 .3092 -.05108 .95164 272.16 -330.39)"/><rect x="1144" y="120" width="11" height="25" fill="#f3d5c0" rx="0" transform="matrix(.60137 .77821 -.79802 .63018 565.225 -905.797)"/><rect x="310" y="734" width="11" height="18" fill="#889EAF" rx="0" transform="matrix(.3341 .98652 -.93654 .22776 1091.638 212.562)"/><rect x="1004" y="1162" width="11" height="28" fill="#889EAF" rx="0" transform="matrix(.93518 .56045 -.28767 .89691 297.195 -96.95)"/><rect x="992" y="119" width="9" height="20" fill="#D4B499" rx="0" transform="matrix(-.33532 .90656 -.9016 -.54471 1380.6 -360.994)"/><rect x="1143" y="543" width="8" height="13" fill="#889EAF" rx="0" transform="matrix(-.34663 .85769 -.95765 -.51535 2188.423 -191.138)"/><rect x="617" y="1172" width="8" height="21" fill="#889EAF" rx="0" transform="matrix(1.03138 .20906 .0689 .98354 119.057 -45.085)"/><rect x="1008" y="634" width="10" height="21" fill="#D4B499" rx="0" transform="matrix(-.52763 .86785 -.83524 -.52146 1943.868 261.89)"/><rect x="1588" y="233" width="10" height="23" fill="#f3d5c0" rx="0" transform="matrix(-.2175 .9824 -.9637 -.24494 2173.739 -1512.867)"/><rect x="1648" y="254" width="13" height="15" fill="#D4B499" rx="0" transform="matrix(-.969 .24225 -.24145 -.97163 3302.602 201.48)"/><rect x="1653" y="1308" width="10" height="25" fill="#f3d5c0" rx="0" transform="matrix(.814 .57674 -.57138 .82366 905.786 -549.114)"/><rect x="156" y="1211" width="9" height="25" fill="#506D84" rx="0" transform="matrix(.897 .59102 -.45737 .81347 641.126 150.225)"/><rect x="1321" y="704" width="10" height="16" fill="#f3d5c0" rx="0" transform="matrix(.72533 .84465 -.63734 .6365 674.522 -404.614)"/><rect x="1010" y="537" width="10" height="11" fill="#889EAF" rx="0" transform="matrix(1.02349 .49229 -.1849 .88811 190.74 -260.002)"/><rect x="1254" y="1354" width="13" height="37" fill="#D4B499" rx="0" transform="matrix(-.82337 .35924 -.63868 -.93586 3512.16 2292.285)"/><rect x="1904" y="252" width="8" height="19" fill="#f3d5c0" rx="0" transform="matrix(.14227 .94566 -1.00847 .32562 1860.025 -1661.278)"/><rect x="1682" y="70" width="9" height="13" fill="#f3d5c0" rx="0" transform="matrix(.92657 .95058 -.60007 .46363 321.48 -981.418)"/><rect x="942" y="209" width="13" height="18" fill="#889EAF" rx="0" transform="matrix(.0351 .99027 -1.0049 .13917 1111.37 -751.609)"/><rect x="757" y="1321" width="8" height="18" fill="#506D84" rx="0" transform="matrix(.95876 .44005 -.30674 .90223 731.035 -271.416)"/><rect x="1651" y="847" width="10" height="29" fill="#f3d5c0" rx="0" transform="matrix(-.72802 .50936 -.7023 -.88223 3528.64 1099.941)"/><rect x="349" y="442" width="12" height="34" fill="#D4B499" rx="0" transform="matrix(.88852 .63716 -.47222 .78683 395.007 -184.576)"/><rect x="57" y="868" width="8" height="14" fill="#889EAF" rx="0" transform="matrix(-.99188 -.03516 .03648 -1.0069 -18.768 1765.669)"/><rect x="1391" y="1361" width="9" height="20" fill="#889EAF" rx="0" transform="matrix(.07667 1.00967 -.99176 -.01762 2919.451 -209.962)"/><rect x="1202" y="662" width="12" height="34" fill="#889EAF" rx="0" transform="matrix(.99126 -.07063 -.01653 1.01 55.888 -112.801)"/><rect x="1799" y="286" width="8" height="20" fill="#889EAF" rx="0" transform="matrix(.92947 .61803 -.33872 .85065 196.625 -484.278)"/><rect x="1262" y="634" width="9" height="24" fill="#f3d5c0" rx="0" transform="matrix(.9883 .03516 -.13886 1.0069 113.08 -204.494)"/><rect x="377" y="508" width="9" height="17" fill="#506D84" rx="0" transform="matrix(-.57685 .66923 -.8536 -.74326 1163.23 651.74)"/><rect x="820" y="646" width="10" height="25" fill="#889EAF" rx="0" transform="matrix(-.69728 .63172 -.7219 -.78011 1901.143 723.211)"/><rect x="1959" y="949" width="11" height="31" fill="#889EAF" rx="0" transform="matrix(.0043 1.00921 -.99102 -.03524 3033.272 -1260.199)"/><rect x="1440" y="622" width="7" height="11" fill="#506D84" rx="0" transform="matrix(-.93742 .22842 -.31745 -.9894 3095.806 664.095)"/><rect x="1016" y="691" width="11" height="28" fill="#889EAF" rx="0" transform="matrix(-.88027 .36106 -.47644 -.9406 2401.092 873.87)"/><rect x="1040" y="356" width="10" height="12" fill="#D4B499" rx="0" transform="matrix(.52817 1 -.81814 .34433 726.073 -447.824)"/><rect x="410" y="607" width="11" height="16" fill="#506D84" rx="0" transform="matrix(-.42447 .94027 -.90904 -.34223 1073.63 449.3)"/><rect x="1215" y="27" width="7" height="15" fill="#D4B499" rx="0" transform="matrix(.7397 .66618 -.65017 .76635 295.636 -588.825)"/><rect x="1513" y="178" width="10" height="24" fill="#D4B499" rx="0" transform="matrix(-.22597 .98904 -.97529 -.15665 2013.227 -1202.05)"/><rect x="1940" y="116" width="12" height="32" fill="#f3d5c0" rx="0" transform="matrix(.99372 .0349 -.19281 .99954 23.887 -101.832)"/><rect x="115" y="120" width="10" height="27" fill="#f3d5c0" rx="0" transform="matrix(.06339 .95298 -1.07625 -.40451 291.284 105.3)"/><rect x="282" y="1042" width="7" height="15" fill="#D4B499" rx="0" transform="matrix(-.6299 .6297 -.81018 -.77762 1594.161 1675.861)"/><rect x="240" y="303" width="10" height="10" fill="#506D84" rx="0" transform="matrix(-.97358 -.17822 .08971 -1.01071 404.661 719.525)"/><rect x="1021" y="894" width="11" height="26" fill="#D4B499" rx="0" transform="matrix(.88295 .48488 -.46947 .87475 545.965 -366.216)"/><rect x="1354" y="747" width="12" height="12" fill="#506D84" rx="0" transform="matrix(1.06403 .44513 -.06493 .91266 191.022 -299.81)"/><rect x="542" y="151" width="7" height="12" fill="#506D84" rx="0" transform="matrix(.71096 .9749 -.7385 .39388 296.99 -259.403)"/><rect x="1804" y="338" width="9" height="25" fill="#889EAF" rx="0" transform="matrix(-.26108 .69386 -1.14087 -.7982 3015.65 -1.864)"/><rect x="1143" y="321" width="10" height="23" fill="#f3d5c0" rx="0" transform="matrix(.79783 .73135 -.62334 .682 492.01 -733.859)"/><rect x="217" y="935" width="11" height="24" fill="#D4B499" rx="0" transform="matrix(-.95734 .10556 -.36523 -1.0043 901.5 1905.852)"/><rect x="1044" y="909" width="7" height="11" fill="#f3d5c0" rx="0" transform="matrix(.60597 .94328 -.83957 .34333 1376.106 -295.916)"/><rect x="1114" y="1266" width="10" height="21" fill="#D4B499" rx="0" transform="matrix(.99449 .0349 -.17535 .9994 50.61 -38.275)"/><rect x="1345" y="1156" width="9" height="11" fill="#889EAF" rx="0" transform="matrix(1.00859 .06993 .12278 1 0 0)"/><rect x="480" y="102" width="10" height="27" fill="#889EAF" rx="0" transform="matrix(.7203 .95419 -.78585 .3473 272.832 -301.876)"/><rect x="1590" y="143" width="10" height="21" fill="#506D84" rx="0" transform="matrix(.99255 0 .18616 1.00751 -29.631 -196.994)"/><rect x="680" y="1149" width="11" height="23" fill="#889EAF" rx="0" transform="matrix(.07013 1.00518 -1.01495 -.28823 1887.08 1015.518)"/><rect x="560" y="410" width="13" height="25" fill="#506D84" rx="0" transform="matrix(1.00121 .13936 -.05144 .99163 76.254 -105.101)"/><rect x="1560" y="455" width="9" height="20" fill="#f3d5c0" rx="0" transform="matrix(.10432 .97974 -1.04477 -.22619 2032.423 -798.185)"/><rect x="1499" y="426" width="13" height="25" fill="#D4B499" rx="0" transform="matrix(.72109 .74326 -.69616 .66923 761.236 -1000.212)"/><rect x="1595" y="697" width="8" height="17" fill="#889EAF" rx="0" transform="matrix(-.88579 .73044 -.51365 -.70537 3333.238 -246.773)"/><rect x="803" y="1365" width="13" height="28" fill="#D4B499" rx="0" transform="matrix(.6719 .90554 -.7766 .44166 1544.298 136.303)"/><rect x="24" y="627" width="11" height="12" fill="#D4B499" rx="0" transform="matrix(.59464 .70721 -.81936 .70721 418.907 164.985)"/><rect x="107" y="943" width="7" height="16" fill="#D4B499" rx="0" transform="matrix(.63935 .9113 -.7992 .42495 1123.345 434.564)"/><rect x="1764" y="1236" width="12" height="16" fill="#506D84" rx="0" transform="matrix(-.67133 .6111 -.7455 -.81096 3912.832 1483.282)"/><rect x="944" y="912" width="9" height="23" fill="#D4B499" rx="0" transform="matrix(-.7177 .83106 -.71918 -.56056 2188.159 586.588)"/><rect x="1703" y="1164" width="13" height="28" fill="#f3d5c0" rx="0" transform="matrix(.31675 1.02568 -.98603 -.03582 2522.659 -138.536)"/><rect x="1620" y="221" width="11" height="25" fill="#f3d5c0" rx="0" transform="matrix(.93212 .75705 -.48162 .68165 319.676 -840.292)"/><rect x="1548" y="1122" width="11" height="26" fill="#D4B499" rx="0" transform="matrix(-.56267 .57169 -.91501 -.84756 3804.425 1539.072)"/><rect x="789" y="1052" width="12" height="33" fill="#D4B499" rx="0" transform="matrix(-.48444 .88416 -.87343 -.47012 2035.768 909.576)"/><rect x="154" y="943" width="10" height="16" fill="#506D84" rx="0" transform="matrix(-.93494 .3439 -.33906 -.94487 528.392 1811.601)"/><rect x="1978" y="729" width="13" height="26" fill="#506D84" rx="0" transform="matrix(.4274 1.03819 -.88014 .2018 1689.713 -784.707)"/><rect x="710" y="1172" width="9" height="24" fill="#506D84" rx="0" transform="matrix(.18772 1.00492 -.97206 .12339 1617.803 433.06)"/><rect x="705" y="1150" width="12" height="12" fill="#506D84" rx="0" transform="matrix(.16672 1.00293 -.97068 .15885 1511.616 384.66)"/><rect x="1844" y="38" width="10" height="26" fill="#f3d5c0" rx="0" transform="matrix(.32368 1.02451 -1.0508 -.23653 1454.575 -1230.486)"/><rect x="1006" y="830" width="9" height="24" fill="#f3d5c0" rx="0" transform="matrix(-.98163 0 -.40734 -1.01872 2566.141 1896.18)"/><rect x="392" y="440" width="12" height="22" fill="#f3d5c0" rx="0" transform="matrix(-.97787 .50623 -.28166 -.87682 880.277 581.928)"/><rect x="886" y="786" width="11" height="13" fill="#506D84" rx="0" transform="matrix(-.27419 .96069 -.94113 -.34966 1743.772 402.65)"/><rect x="526" y="353" width="13" height="37" fill="#889EAF" rx="0" transform="matrix(1.0333 .5922 -.2664 .8151 198.3 -181.27)"/><rect x="293" y="1103" width="13" height="25" fill="#506D84" rx="0" transform="matrix(.3404 1.0296 -.93547 .10822 1220.196 766.67)"/><rect x="314" y="1342" width="11" height="26" fill="#D4B499" rx="0" transform="matrix(-.12178 .99269 -.99025 -.13951 1628.018 1249.218)"/><rect x="798" y="1376" width="8" height="19" fill="#506D84" rx="0" transform="matrix(-.89938 .16195 -.4962 -1.02253 2350.797 2887.225)"/><rect x="975" y="458" width="9" height="23" fill="#506D84" rx="0" transform="matrix(-.9689 -.09023 .0082 -1.03134 1795.62 1304.55)"/><rect x="1004" y="252" width="11" height="23" fill="#506D84" rx="0" transform="matrix(-.98388 .01767 -.2267 -1.01231 2084.653 672.295)"/><rect x="1018" y="1136" width="10" height="19" fill="#506D84" rx="0" transform="matrix(-.41698 .61147 -1.06147 -.84162 3132.994 1777.38)"/><rect x="1762" y="152" width="8" height="10" fill="#D4B499" rx="0" transform="matrix(1.10348 .44268 .0035 .90763 -43.782 -519.074)"/><rect x="119" y="931" width="7" height="9" fill="#D4B499" rx="0" transform="matrix(.42354 .93372 -.9084 .35842 969.564 487.953)"/><rect x="328" y="211" width="10" height="26" fill="#D4B499" rx="0" transform="matrix(-.4917 .60663 -.94623 -.86635 762.333 330.717)"/><rect x="1837" y="190" width="7" height="14" fill="#D4B499" rx="0" transform="matrix(.77997 .7477 -.61012 .69723 494.337 -925.273)"/><rect x="113" y="561" width="10" height="20" fill="#506D84" rx="0" transform="matrix(1.0108 .31072 -.1074 .9563 121.369 .693)"/><rect x="939" y="1269" width="10" height="11" fill="#f3d5c0" rx="0" transform="matrix(.29056 1.05746 -.95073 -.01846 1853.503 624.828)"/><rect x="382" y="933" width="12" height="25" fill="#889EAF" rx="0" transform="matrix(.94274 .27669 -.32642 .96493 193.196 -40.255)"/><rect x="1542" y="721" width="7" height="17" fill="#f3d5c0" rx="0" transform="matrix(-.839 .5886 -.54417 -.81013 3153.976 491.815)"/><rect x="1891" y="11" width="7" height="17" fill="#f3d5c0" rx="0" transform="matrix(.92329 .34628 -.3511 .9514 112.75 -955.146)"/><rect x="579" y="291" width="13" height="31" fill="#506D84" rx="0" transform="matrix(.42592 1 -.97022 .06993 733.124 -259.49)"/><rect x="235" y="570" width="13" height="35" fill="#889EAF" rx="0" transform="matrix(.6568 .71945 -.75569 .69476 485.474 9.794)"/><rect x="1346" y="129" width="13" height="30" fill="#506D84" rx="0" transform="matrix(.17153 1.04171 -.97496 -.09114 1241.426 -838.292)"/><rect x="238" y="421" width="10" height="24" fill="#D4B499" rx="0" transform="matrix(-.6646 .74724 -.73985 -.67282 767.679 517.21)"/><rect x="1209" y="1182" width="10" height="13" fill="#f3d5c0" rx="0" transform="matrix(.40167 1.00861 -.95632 .08824 2081.652 51.447)"/><rect x="450" y="715" width="12" height="20" fill="#889EAF" rx="0" transform="matrix(-.9962 .19186 -.08716 -.98703 973.453 1305.184)"/><rect x="23" y="1341" width="7" height="20" fill="#f3d5c0" rx="0" transform="matrix(-.8076 .43556 -.564 -.93405 714.94 2607.97)"/><rect x="1550" y="649" width="10" height="24" fill="#506D84" rx="0" transform="matrix(.8304 .93015 -.68788 .43373 953.895 -713.078)"/><rect x="954" y="91" width="13" height="33" fill="#506D84" rx="0" transform="matrix(.064 1.0148 -.98764 -.03544 988.619 -1032.776)"/><rect x="277" y="622" width="9" height="14" fill="#f3d5c0" rx="0" transform="matrix(-.4049 .86044 -.91891 -.517 1101.935 687.354)"/><rect x="400" y="905" width="12" height="29" fill="#889EAF" rx="0" transform="matrix(.78721 .63018 -.61471 .77821 714.43 -73.199)"/><rect x="122" y="1344" width="12" height="27" fill="#506D84" rx="0" transform="matrix(-.42231 .89223 -.90561 -.45461 1387.61 1867.14)"/><rect x="487" y="202" width="12" height="32" fill="#506D84" rx="0" transform="matrix(-.59522 .48384 -.94734 -.90998 1097.192 300.759)"/><rect x="445" y="306" width="13" height="25" fill="#D4B499" rx="0" transform="matrix(-1.01834 .22664 -.00135 -.98169 884.062 473.402)"/><rect x="1111" y="1215" width="10" height="15" fill="#889EAF" rx="0" transform="matrix(1.05666 .34207 -.0202 .93984 364.997 -288.722)"/><rect x="804" y="1318" width="12" height="25" fill="#f3d5c0" rx="0" transform="matrix(.9815 .10454 -.22695 .99467 127.961 -63.455)"/><rect x="1966" y="56" width="7" height="7" fill="#D4B499" rx="0" transform="matrix(.8112 .99484 -.75717 .30415 584.147 -1353.196)"/><rect x="222" y="861" width="9" height="17" fill="#506D84" rx="0" transform="matrix(-.54366 .76897 -.84426 -.64524 1264.326 1236.55)"/><rect x="981" y="365" width="12" height="33" fill="#f3d5c0" rx="0" transform="matrix(-.97945 -.03613 -.37036 -1.03465 2185.792 1076.344)"/><rect x="1710" y="1295" width="13" height="24" fill="#f3d5c0" rx="0" transform="matrix(-.4372 .8322 -.90674 -.56133 3919.12 462.004)"/><rect x="501" y="880" width="9" height="24" fill="#f3d5c0" rx="0" transform="matrix(-.79325 .54386 -.56926 -.87036 1254.499 1510.14)"/><rect x="1440" y="1057" width="13" height="35" fill="#f3d5c0" rx="0" transform="matrix(.91635 .60633 -.43322 .80463 877.91 -844.75)"/><rect x="1492" y="1059" width="10" height="22" fill="#f3d5c0" rx="0" transform="matrix(.89266 .96846 -.70767 .3525 1414.838 -383.706)"/><rect x="1338" y="1097" width="8" height="12" fill="#506D84" rx="0" transform="matrix(-.39524 .71018 -.99882 -.73541 3294.608 1246.35)"/><rect x="1561" y="114" width="9" height="26" fill="#D4B499" rx="0" transform="matrix(.85752 .5381 -.4861 .86113 253.106 -1100.79)"/><rect x="314" y="306" width="13" height="26" fill="#D4B499" rx="0" transform="matrix(.69635 .76604 -.7211 .64279 349.655 -131.566)"/><rect x="1695" y="1044" width="10" height="19" fill="#889EAF" rx="0" transform="matrix(-.09555 .97318 -1.00196 -.26076 3160.232 -534.926)"/><rect x="180" y="886" width="9" height="25" fill="#889EAF" rx="0" transform="matrix(-.78986 .42495 -.65937 -.9113 1068.057 1658.292)"/><rect x="1168" y="827" width="10" height="19" fill="#f3d5c0" rx="0" transform="matrix(-1.02773 .24565 .05122 -.98526 2258.365 1165.69)"/><rect x="1431" y="1021" width="9" height="14" fill="#506D84" rx="0" transform="matrix(-.62747 .76792 -.77571 -.64436 3214.83 487.677)"/><rect x="670" y="802" width="12" height="27" fill="#D4B499" rx="0" transform="matrix(.3545 .99772 -.9775 .06977 1455.189 95.949)"/><rect x="1716" y="217" width="9" height="12" fill="#f3d5c0" rx="0" transform="matrix(.0117 1.03819 -.96549 -.2018 1815.555 -925.787)"/><rect x="911" y="1011" width="10" height="22" fill="#D4B499" rx="0" transform="matrix(-.7026 .77357 -.70315 -.6491 2325.017 848.057)"/></svg>