<svg xmlns="http://www.w3.org/2000/svg" version="1.1" xmlns:xlink="http://www.w3.org/1999/xlink" xmlns:svgjs="http://svgjs.dev/svgjs" width="1440" height="250" preserveAspectRatio="none" viewBox="0 0 1440 250"><g mask="url(&quot;#SvgjsMask1033&quot;)" fill="none"><path d="M4 250L254 0L336.5 0L86.5 250z" fill="url(&quot;#SvgjsLinearGradient1034&quot;)"></path><path d="M246.60000000000002 250L496.6 0L643.6 0L393.6 250z" fill="url(&quot;#SvgjsLinearGradient1034&quot;)"></path><path d="M493.20000000000005 250L743.2 0L822.7 0L572.7 250z" fill="url(&quot;#SvgjsLinearGradient1034&quot;)"></path><path d="M720.8000000000001 250L970.8000000000001 0L1018.8000000000001 0L768.8000000000001 250z" fill="url(&quot;#SvgjsLinearGradient1034&quot;)"></path><path d="M1401 250L1151 0L843.5 0L1093.5 250z" fill="url(&quot;#SvgjsLinearGradient1035&quot;)"></path><path d="M1178.4 250L928.4000000000001 0L860.9000000000001 0L1110.9 250z" fill="url(&quot;#SvgjsLinearGradient1035&quot;)"></path><path d="M926.8 250L676.8 0L478.79999999999995 0L728.8 250z" fill="url(&quot;#SvgjsLinearGradient1035&quot;)"></path><path d="M683.1999999999999 250L433.19999999999993 0L256.19999999999993 0L506.19999999999993 250z" fill="url(&quot;#SvgjsLinearGradient1035&quot;)"></path><path d="M1313.9699643321203 250L1440 123.96996433212031L1440 250z" fill="url(&quot;#SvgjsLinearGradient1034&quot;)"></path><path d="M0 250L126.03003566787969 250L 0 123.96996433212031z" fill="url(&quot;#SvgjsLinearGradient1035&quot;)"></path></g><defs><mask id="SvgjsMask1033"><rect width="1440" height="250" fill="#ffffff"></rect></mask><linearGradient x1="0%" y1="100%" x2="100%" y2="0%" id="SvgjsLinearGradient1034"><stop stop-color="rgba(56, 58, 63, 1)" offset="0"></stop><stop stop-opacity="0" stop-color="rgba(56, 58, 63, 1)" offset="0.66"></stop></linearGradient><linearGradient x1="100%" y1="100%" x2="0%" y2="0%" id="SvgjsLinearGradient1035"><stop stop-color="rgba(56, 58, 63, 1)" offset="0"></stop><stop stop-opacity="0" stop-color="rgba(56, 58, 63, 1)" offset="0.66"></stop></linearGradient></defs></svg>